#!OML:ASF I:\Actors\actors\Patient Classification 2\Patient 1\Session 1\actor1.ASF
:FULLY-SPECIFIED
:DEGREES
675
root -0.62358 18.4034 5.68182 -3.53376 1.18242 -4.72678
lowerback 14.5175 -0.223793 3.93812
upperback -1.79636 0.818899 4.04507
thorax -10.1559 0.304733 1.97033
lowerneck -17.4825 -4.41762 -3.47507
upperneck 18.8292 -5.98026 3.62459
head 9.00682 -2.66133 1.03617
rclavicle 4.9075e-015 -4.69132e-014
rhumerus -46.6878 -14.1284 -24.7994
rradius 101.442
rwrist -22.1598
rhand 3.97406 -52.8259
rfingers 7.12502
rthumb 29.3909 -80.5218
lclavicle 4.9075e-015 -4.69132e-014
lhumerus -46.0435 8.75667 40.1292
lradius 108.466
lwrist 29.8134
lhand -1.13476 -23.7438
lfingers 7.12502
lthumb 24.503 4.70866
rfemur 12.4476 2.19929 18.7077
rtibia 1.27222e-014
rfoot -16.7252 -13.4708
rtoes -17.8831
lfemur -6.03073 -2.02301 -9.04401
ltibia 31.5785
lfoot -22.3189 4.0644
ltoes -56.9917
676
root -0.624654 18.4044 5.69622 -3.73273 1.0244 -4.75136
lowerback 14.3868 -0.26652 3.75438
upperback -1.81659 0.718059 4.01794
thorax -10.1026 0.266365 2.0666
lowerneck -17.7252 -4.34664 -3.29565
upperneck 18.992 -5.88133 3.40529
head 9.08979 -2.62129 0.940124
rclavicle 9.75287e-015 3.97569e-015
rhumerus -46.5263 -15.0355 -23.8252
rradius 101.406
rwrist -22.2917
rhand 4.51026 -52.8872
rfingers 7.12502
rthumb 29.9027 -80.492
lclavicle 9.75287e-015 3.97569e-015
lhumerus -45.6388 9.27751 39.2832
lradius 108.186
lwrist 30.2158
lhand -1.26381 -23.8106
lfingers 7.12502
lthumb 24.3793 4.65851
rfemur 12.7187 2.3554 18.7765
rtibia 3.33958e-014
rfoot -16.803 -13.3627
rtoes -17.6062
lfemur -5.62862 -1.915 -9.00228
ltibia 31.4346
lfoot -22.336 4.08634
ltoes -57.028
677
root -0.632025 18.4051 5.71398 -3.96807 1.03506 -4.81932
lowerback 14.2229 -0.364944 3.53478
upperback -1.78483 0.534326 4.01465
thorax -9.97154 0.191625 2.22572
lowerneck -18.0956 -4.22317 -2.98953
upperneck 19.1755 -5.7169 3.07499
head 9.19378 -2.5521 0.79179
rclavicle -8.27441e-015 -2.38542e-014
rhumerus -46.2748 -15.9043 -22.9503
rradius 101.346
rwrist -22.4676
rhand 3.70216 -52.4165
rfingers 7.12502
rthumb 29.1313 -80.1576
lclavicle -8.27441e-015 -2.38542e-014
lhumerus -45.3158 9.87389 38.3513
lradius 107.925
lwrist 30.4258
lhand -1.25095 -24.0311
lfingers 7.12502
lthumb 24.3917 4.43641
rfemur 13.0822 2.33588 18.9063
rtibia -1.59028e-015
rfoot -16.9765 -13.1961
rtoes -17.0893
lfemur -5.20279 -1.93785 -8.89133
ltibia 31.2701
lfoot -22.3595 4.0788
ltoes -57.1437
678
root -0.634581 18.4071 5.72571 -4.0869 0.898892 -4.8343
lowerback 14.0408 -0.407659 3.33098
upperback -1.82449 0.428091 3.97748
thorax -9.90847 0.151034 2.32252
lowerneck -18.2423 -4.09814 -2.71693
upperneck 19.2734 -5.55397 2.78572
head 9.2313 -2.48584 0.667261
rclavicle 9.64106e-015 7.95139e-015
rhumerus -45.9973 -16.6957 -22.1049
rradius 101.229
rwrist -22.5906
rhand 2.829 -52.1812
rfingers 7.12502
rthumb 28.2971 -80.0637
lclavicle 9.64106e-015 7.95139e-015
lhumerus -45.0514 10.3709 37.4274
lradius 107.738
lwrist 30.7173
lhand -1.19192 -23.862
lfingers 7.12502
lthumb 24.4482 4.59788
rfemur 13.2652 2.46885 18.9585
rtibia 3.65764e-014
rfoot -17.0911 -13.063
rtoes -16.6433
lfemur -4.88495 -1.92781 -8.8714
ltibia 31.0895
lfoot -22.3835 4.17582
ltoes -57.1278
679
root -0.630398 18.4094 5.73378 -4.14763 0.636491 -4.77651
lowerback 13.844 -0.375521 3.16378
upperback -1.91703 0.426256 3.89269
thorax -9.89576 0.156432 2.32445
lowerneck -18.0851 -4.02181 -2.63111
upperneck 19.2457 -5.4589 2.71334
head 9.18557 -2.44581 0.644425
rclavicle -2.98177e-016 1.59028e-014
rhumerus -45.8577 -17.4296 -21.2581
rradius 101.148
rwrist -22.7446
rhand 2.22486 -52.0367
rfingers 7.12502
rthumb 27.7196 -80.0135
lclavicle -2.98177e-016 1.59028e-014
lhumerus -44.7019 10.7721 36.6029
lradius 107.482
lwrist 31.0937
lhand -1.23323 -23.9038
lfingers 7.12502
lthumb 24.4086 4.5614
rfemur 13.3365 2.73803 18.91
rtibia -6.04305e-014
rfoot -17.1475 -12.9838
rtoes -16.4001
lfemur -4.61922 -1.88793 -8.97658
ltibia 30.917
lfoot -22.4293 4.41145
ltoes -57.1188
680
root -0.62412 18.4112 5.74129 -4.16852 0.409527 -4.78914
lowerback 13.606 -0.361851 3.09448
upperback -2.02618 0.417945 3.83074
thorax -9.87729 0.154035 2.29713
lowerneck -17.9379 -3.93036 -2.62578
upperneck 19.2844 -5.35063 2.76363
head 9.17069 -2.39095 0.677675
rclavicle -1.0635e-014 -7.95139e-015
rhumerus -45.7302 -18.083 -20.4804
rradius 101.13
rwrist -22.9728
rhand 2.06611 -51.967
rfingers 7.12502
rthumb 27.5678 -79.9681
lclavicle -1.0635e-014 -7.95139e-015
lhumerus -44.3816 11.2231 35.8077
lradius 107.136
lwrist 31.2884
lhand -1.39822 -24.3922
lfingers 7.12502
lthumb 24.2505 4.09421
rfemur 13.3638 2.96553 18.9305
rtibia -9.54166e-015
rfoot -17.1783 -12.9342
rtoes -16.3215
lfemur -4.41513 -1.87726 -9.01345
ltibia 30.7585
lfoot -22.4484 4.65278
ltoes -57.1941
681
root -0.61856 18.4142 5.74649 -4.14092 0.239399 -4.83796
lowerback 13.3668 -0.373521 3.03853
upperback -2.16885 0.383088 3.79982
thorax -9.89481 0.139134 2.30272
lowerneck -17.8931 -3.79794 -2.55987
upperneck 19.463 -5.18679 2.73451
head 9.21696 -2.31194 0.678686
rclavicle 5.2181e-016 3.73715e-014
rhumerus -45.5238 -18.665 -19.7518
rradius 101.096
rwrist -23.18
rhand 2.22109 -52.1443
rfingers 7.12502
rthumb 27.716 -80.1217
lclavicle 5.2181e-016 3.73715e-014
lhumerus -44.1906 11.7327 35.0385
lradius 106.866
lwrist 31.4498
lhand -1.52534 -24.6026
lfingers 7.12502
lthumb 24.1286 3.90005
rfemur 13.3317 3.13213 18.9844
rtibia 6.36111e-015
rfoot -17.2208 -12.8835
rtoes -16.0623
lfemur -4.2949 -1.90356 -9.00581
ltibia 30.6015
lfoot -22.4351 4.89184
ltoes -57.3455
